<?xml version="1.0" standalone="no"?>
<!DOCTYPE svg PUBLIC "-//W3C//DTD SVG 20010904//EN"
 "http://www.w3.org/TR/2001/REC-SVG-20010904/DTD/svg10.dtd">
<svg version="1.0" xmlns="http://www.w3.org/2000/svg"
 width="16.000000pt" height="16.000000pt" viewBox="0 0 16.000000 16.000000"
 preserveAspectRatio="xMidYMid meet">
<metadata>
Created by potrace 1.11, written by Peter Selinger 2001-2013
</metadata>
<g transform="translate(0.000000,16.000000) scale(0.004103,-0.004103)"
fill="#000000" stroke="none">
<path d="M1709 3895 c-2 -2 -24 -6 -48 -10 -114 -17 -312 -98 -358 -147 -49
-51 -61 -61 -133 -109 -234 -153 -360 -343 -431 -648 -26 -110 -30 -139 -34
-245 -3 -79 -6 -91 -29 -115 -15 -15 -31 -43 -36 -62 -15 -51 -13 -166 3 -181
12 -10 7 -17 -25 -41 -48 -34 -94 -98 -126 -174 -54 -128 -53 -253 4 -364 18
-37 21 -53 15 -77 -13 -43 -6 -133 12 -168 23 -44 83 -99 130 -120 23 -10 43
-19 44 -19 2 -1 -8 -29 -22 -63 -80 -198 -145 -525 -139 -701 3 -88 19 -142
49 -164 39 -28 190 -73 320 -95 127 -22 194 -31 355 -47 36 -4 79 -8 95 -10
26 -3 80 -6 302 -20 56 -3 73 -10 73 -27 0 -31 92 -90 176 -113 10 -3 34 -106
34 -148 0 -24 14 -28 62 -18 24 5 63 13 88 16 24 4 47 8 50 10 3 1 25 6 50 9
25 3 56 8 70 11 14 3 50 9 80 15 30 6 66 12 80 15 14 3 50 9 80 15 52 9 68 12
150 25 19 3 82 14 140 23 l105 18 3 45 c3 41 7 48 40 67 60 33 118 97 133 144
12 41 17 45 113 92 134 65 226 153 251 239 19 65 14 88 -37 190 -36 73 -159
255 -249 368 -56 72 -65 89 -51 93 32 11 105 91 129 143 27 59 33 114 20 188
-10 54 -54 159 -88 206 -20 29 -21 33 -7 82 17 60 16 140 -1 214 -14 57 -10
73 19 73 36 0 131 42 161 71 16 16 29 39 29 52 0 26 -34 77 -51 77 -6 0 -72
41 -148 92 l-138 92 -37 151 c-20 82 -39 157 -40 165 -19 77 -43 165 -77 272
-32 104 -48 139 -87 190 -206 271 -519 415 -923 424 -81 2 -148 1 -150 -1z
m-477 -2803 c43 -47 99 -80 161 -96 59 -16 194 -18 240 -5 26 7 35 4 69 -27
22 -19 50 -39 64 -44 15 -6 24 -18 25 -32 0 -13 2 -30 4 -38 2 -8 6 -33 10
-55 4 -22 12 -70 19 -107 l13 -67 -34 -12 c-18 -6 -47 -22 -63 -36 l-30 -25
-158 70 c-297 132 -428 182 -486 182 -23 0 -27 3 -21 18 46 115 115 317 115
341 1 12 6 10 21 -9 11 -14 34 -40 51 -58z m1709 -217 c26 -25 53 -45 59 -45
14 0 13 -16 -3 -32 -7 -7 -25 -30 -41 -50 -16 -21 -36 -38 -46 -38 -16 0 -18
11 -19 96 -1 54 -4 101 -7 105 -13 22 13 5 57 -36z"/>
</g>
</svg>
